<?xml version="1.0" encoding="UTF-8" standalone="no"?>

<svg
   xmlns:dc="http://purl.org/dc/elements/1.1/"
   xmlns:cc="http://creativecommons.org/ns#"
   xmlns:rdf="http://www.w3.org/1999/02/22-rdf-syntax-ns#"
   xmlns:svg="http://www.w3.org/2000/svg"
   xmlns="http://www.w3.org/2000/svg"
   xmlns:sodipodi="http://sodipodi.sourceforge.net/DTD/sodipodi-0.dtd"
   xmlns:inkscape="http://www.inkscape.org/namespaces/inkscape"
   viewBox="0 0 62.793022 8.0150146"
   version="1.1"
   id="svg8"
   inkscape:version="0.92.1 r"
   sodipodi:docname="logo-full.svg">
  <defs
     id="defs2" />
  <sodipodi:namedview
     id="base"
     pagecolor="#1c14ed"
     bordercolor="#666666"
     borderopacity="1.0"
     inkscape:pageopacity="0"
     inkscape:pageshadow="2"
     inkscape:zoom="2.831793"
     inkscape:cx="189.55171"
     inkscape:cy="-70.970056"
     inkscape:document-units="mm"
     inkscape:current-layer="layer1"
     showgrid="false"
     fit-margin-top="0"
     fit-margin-left="0"
     fit-margin-right="0"
     fit-margin-bottom="0"
     inkscape:window-width="1792"
     inkscape:window-height="1020"
     inkscape:window-x="0"
     inkscape:window-y="23"
     inkscape:window-maximized="0"
     inkscape:pagecheckerboard="false" />
  <metadata
     id="metadata5">
    <rdf:RDF>
      <cc:Work
         rdf:about="">
        <dc:format>image/svg+xml</dc:format>
        <dc:type
           rdf:resource="http://purl.org/dc/dcmitype/StillImage" />
        <dc:title></dc:title>
      </cc:Work>
    </rdf:RDF>
  </metadata>
  <g
     inkscape:label="Layer 1"
     inkscape:groupmode="layer"
     id="layer1"
     transform="translate(-58.953506,-99.703509)">
    <g
       aria-label="ФИНРОСА"
       style="font-style:normal;font-weight:normal;font-size:10.58333302px;line-height:1.25;font-family:sans-serif;letter-spacing:0px;word-spacing:0px;fill:#ffffff;fill-opacity:1;stroke:none;stroke-width:0.26458332"
       id="text3686">
      <path
         d="m 67.12355,101.42433 q 0.454753,0.38241 0.697632,0.94568 0.248047,0.55811 0.248047,1.28158 0,0.71313 -0.253215,1.27641 -0.253214,0.56327 -0.728637,0.96118 -0.485759,0.39791 -1.121379,0.62012 -0.630452,0.2222 -1.467611,0.27905 v 0.84232 h -1.974039 v -0.84232 q -0.81132,-0.0568 -1.467611,-0.27905 -0.65629,-0.22738 -1.126546,-0.62529 -0.470256,-0.39791 -0.72347,-0.95601 -0.253215,-0.55811 -0.253215,-1.27641 0,-0.72347 0.24288,-1.26607 0.242879,-0.54261 0.702799,-0.93535 0.449585,-0.37724 1.126546,-0.59944 0.676962,-0.22738 1.498617,-0.28939 v -0.785484 h 1.974039 v 0.785484 q 0.852662,0.0465 1.503785,0.26355 0.65629,0.21187 1.121378,0.59944 z m -1.105875,2.19625 q 0,-0.74414 -0.392741,-1.20923 -0.392741,-0.46508 -1.126547,-0.56327 v 3.65869 q 0.852662,-0.14986 1.183391,-0.60461 0.335897,-0.45992 0.335897,-1.28158 z m -3.493327,1.88619 v -3.65869 q -0.754476,0.11369 -1.136882,0.55811 -0.382405,0.43925 -0.382405,1.21439 0,0.81132 0.341064,1.27641 0.346232,0.45992 1.178223,0.60978 z"
         style="font-style:normal;font-variant:normal;font-weight:bold;font-stretch:normal;font-family:sans-serif;-inkscape-font-specification:'sans-serif Bold';fill:#ffffff;stroke-width:0.26458332"
         id="path3742" />
      <path
         d="m 76.559666,107.55833 h -1.932698 v -5.12114 l -3.193604,5.12114 h -1.891357 v -7.694624 h 1.932699 v 4.635374 L 74.4461,99.863706 h 2.113566 z"
         style="font-style:normal;font-variant:normal;font-weight:bold;font-stretch:normal;font-family:sans-serif;-inkscape-font-specification:'sans-serif Bold';fill:#ffffff;stroke-width:0.26458332"
         id="path3744" />
      <path
         d="m 85.391169,107.55833 h -1.984375 v -3.38998 H 80.47674 v 3.38998 h -1.984375 v -7.694624 h 1.984375 v 2.816364 h 2.930054 v -2.816364 h 1.984375 z"
         style="font-style:normal;font-variant:normal;font-weight:bold;font-stretch:normal;font-family:sans-serif;-inkscape-font-specification:'sans-serif Bold';fill:#ffffff;stroke-width:0.26458332"
         id="path3746" />
      <path
         d="m 93.711075,102.2925 q 0,0.51676 -0.180868,1.01286 -0.180867,0.49092 -0.516764,0.82682 -0.45992,0.45475 -1.028361,0.6873 -0.563273,0.23254 -1.405599,0.23254 h -1.235067 v 2.50631 h -1.984375 v -7.694624 h 3.265951 q 0.733805,0 1.235066,0.129191 0.506429,0.124023 0.894003,0.377243 0.465088,0.30489 0.707967,0.78031 0.248047,0.47542 0.248047,1.14205 z m -2.051555,0.0465 q 0,-0.32556 -0.1757,-0.55811 -0.175699,-0.23771 -0.408243,-0.33073 -0.310059,-0.12402 -0.604615,-0.13436 -0.294555,-0.0155 -0.785481,-0.0155 h -0.341065 v 2.30477 h 0.568441 q 0.506429,0 0.83199,-0.062 0.33073,-0.062 0.552938,-0.24805 0.191203,-0.16536 0.273885,-0.39274 0.08785,-0.23254 0.08785,-0.56327 z"
         style="font-style:normal;font-variant:normal;font-weight:bold;font-stretch:normal;font-family:sans-serif;-inkscape-font-specification:'sans-serif Bold';fill:#ffffff;stroke-width:0.26458332"
         id="path3748" />
      <path
         d="m 102.59425,103.7136 q 0,1.83968 -1.0542,2.92489 -1.0542,1.08003 -2.914547,1.08003 -1.855183,0 -2.909383,-1.08003 -1.054199,-1.08521 -1.054199,-2.92489 0,-1.85518 1.054199,-2.93005 1.0542,-1.080041 2.909383,-1.080041 1.850017,0 2.909387,1.080041 1.05936,1.07487 1.05936,2.93005 z m -2.630327,1.9482 q 0.289387,-0.3514 0.428917,-0.82682 0.13952,-0.48059 0.13952,-1.12655 0,-0.69246 -0.16019,-1.17822 -0.1602,-0.48576 -0.418582,-0.78548 -0.26355,-0.31006 -0.609782,-0.44959 -0.341065,-0.13952 -0.713135,-0.13952 -0.377238,0 -0.713135,0.13436 -0.330729,0.13435 -0.609782,0.44441 -0.258382,0.28939 -0.423746,0.80099 -0.160197,0.50643 -0.160197,1.17822 0,0.6873 0.155029,1.17306 0.160197,0.48059 0.418579,0.78548 0.258382,0.30489 0.604614,0.44958 0.346232,0.1447 0.728638,0.1447 0.382406,0 0.728638,-0.1447 0.346232,-0.14986 0.604614,-0.45992 z"
         style="font-style:normal;font-variant:normal;font-weight:bold;font-stretch:normal;font-family:sans-serif;-inkscape-font-specification:'sans-serif Bold';fill:#ffffff;stroke-width:0.26458332"
         id="path3750" />
      <path
         d="m 107.58103,107.70819 q -0.85783,0 -1.58647,-0.25322 -0.72347,-0.25321 -1.2454,-0.75447 -0.52193,-0.50126 -0.81132,-1.25057 -0.28422,-0.74931 -0.28422,-1.73116 0,-0.91467 0.27389,-1.65882 0.27388,-0.74414 0.79581,-1.2764 0.50126,-0.5116 1.24024,-0.790653 0.74414,-0.279052 1.62264,-0.279052 0.48576,0 0.87333,0.05684 0.39274,0.05168 0.72347,0.139526 0.34623,0.09819 0.62528,0.222205 0.28422,0.11886 0.4961,0.22221 v 1.86552 H 110.077 q -0.14469,-0.12402 -0.3669,-0.29455 -0.21704,-0.17054 -0.4961,-0.3359 -0.28422,-0.16537 -0.61495,-0.27905 -0.33072,-0.11369 -0.70796,-0.11369 -0.41858,0 -0.79582,0.13436 -0.37724,0.12919 -0.69763,0.43408 -0.30489,0.29455 -0.49609,0.78031 -0.18604,0.48576 -0.18604,1.17823 0,0.72347 0.20154,1.20922 0.2067,0.48576 0.51676,0.76482 0.31523,0.28422 0.7028,0.40824 0.38758,0.11885 0.76481,0.11885 0.36174,0 0.71314,-0.10852 0.35657,-0.10852 0.65629,-0.29455 0.25321,-0.14986 0.47025,-0.3204 0.21704,-0.17053 0.35657,-0.29455 h 0.20671 v 1.83968 q -0.28939,0.12919 -0.55294,0.24288 -0.26355,0.11369 -0.55294,0.19637 -0.37724,0.10852 -0.70797,0.16536 -0.33072,0.0568 -0.9095,0.0568 z"
         style="font-style:normal;font-variant:normal;font-weight:bold;font-stretch:normal;font-family:sans-serif;-inkscape-font-specification:'sans-serif Bold';fill:#ffffff;stroke-width:0.26458332"
         id="path3752" />
      <path
         d="m 118.88266,107.55833 h -2.05155 l -0.53227,-1.55546 h -2.85254 l -0.53226,1.55546 h -1.99988 l 2.8422,-7.694624 h 2.2841 z m -3.06441,-2.96623 -0.94568,-2.75952 -0.94568,2.75952 z"
         style="font-style:normal;font-variant:normal;font-weight:bold;font-stretch:normal;font-family:sans-serif;-inkscape-font-specification:'sans-serif Bold';fill:#ffffff;stroke-width:0.26458332"
         id="path3754" />
    </g>
    <path
       inkscape:connector-curvature="0"
       id="path3692"
       d="m 117.01297,99.841695 2.8422,7.694615 h 1.89136 l -2.84221,-7.694615 z"
       style="font-style:normal;font-variant:normal;font-weight:bold;font-stretch:normal;font-size:medium;line-height:1.25;font-family:sans-serif;-inkscape-font-specification:'sans-serif Bold';letter-spacing:0px;word-spacing:0px;fill:#ff0000;fill-opacity:1;stroke:none;stroke-width:0.26458332"
       sodipodi:nodetypes="ccccc" />
  </g>
</svg>
